PathFileType	4	(X/Y/Z)	C:\Users\WrightLab\Desktop\Jo\P5V28.trc
DataRate	CameraRate	NumFrames	NumMarkers	Units	OrigDataRate	OrigDataStartFrame	OrigNumFrames
100.00	100.00	       21	19	mm	100.00	345	       918
Frame#	Time	Headset_Front			Headset_Back			Headset_Left			Headset_Right			Left_Shoulder			Right_Shoulder			Sternum			C7			Left Elbow			Right Elbow			Left Wrist			Right Wrist			Left ASIS			Right ASIS			S2			Left Knee			Right Knee			Left Ankle			Right Ankle			
		X1	Y1	Z1	X2	Y2	Z2	X3	Y3	Z3	X4	Y4	Z4	X5	Y5	Z5	X6	Y6	Z6	X7	Y7	Z7	X8	Y8	Z8	X9	Y9	Z9	X10	Y10	Z10	X11	Y11	Z11	X12	Y12	Z12	X13	Y13	Z13	X14	Y14	Z14	X15	Y15	Z15	X16	Y16	Z16	X17	Y17	Z17	X18	Y18	Z18	X19	Y19	Z19	

345	3.440	-188.20949	1569.65894	-189.89439							-419.42816	1537.88745	-172.50716	-87.29707	1512.60999	-403.14145	-474.36084	1428.08777	-288.79889	-257.00122	1298.91260	-285.77350	-332.27048	1518.12952	-460.78528	8.70023	1229.98950	-467.40482	-618.14972	1197.88184	-233.62985	24.81178	994.51746	-376.14359	-647.74805	1091.21704	-7.66695	-93.69914	928.75922	-327.95508	-363.94934	922.35876	-245.89821	-266.79681	978.44226	-549.49670	-71.11599	488.28186	-369.44321	-407.99078	501.93594	-215.49075	-88.12924	94.19738	-565.51007	-431.46857	94.04044	-222.24469	
346	3.450	-190.21454	1570.20532	-183.76926							-420.83896	1538.05151	-165.86591	-90.74747	1513.82959	-399.08545	-477.34891	1427.35242	-281.63788	-259.57825	1299.82190	-280.85748	-335.52332	1518.26941	-454.29733	5.74969	1230.68750	-464.18314	-620.81012	1197.34753	-227.49147	22.21684	995.49304	-373.65295	-650.14941	1089.48792	-1.90590	-97.90180	929.62878	-322.50861	-365.87994	922.11456	-239.36975	-269.93600	980.16522	-543.97070	-76.44208	485.82843	-359.88336	-411.26859	501.47543	-213.83344	-87.24281	96.29338	-564.10333	-431.97958	94.15722	-222.01985	
347	3.460	-192.93108	1570.94141	-178.41574							-422.85770	1538.45056	-159.50911	-93.81813	1514.44946	-393.50375	-480.50110	1427.46667	-274.83151	-261.48438	1300.23547	-274.77344	-339.09012	1518.73914	-448.18890	2.84816	1232.12219	-460.42383	-624.32971	1197.79260	-221.72754	19.47119	997.06781	-371.26633	-653.28833	1088.44824	3.64776	-99.55435	931.17615	-317.46567	-367.70700	922.96472	-230.64610	-273.06131	981.25433	-538.11249	-79.62128	485.80362	-348.71237	-414.71588	501.76956	-211.46825	-88.40704	97.59907	-563.46838	-432.00092	94.26919	-221.64482	
348	3.470	-194.67314	1570.88611	-171.47379							-424.85803	1538.78674	-152.83090	-96.98071	1515.78943	-388.38837	-482.27945	1427.02893	-267.75504	-263.07153	1300.19397	-270.08575	-342.31650	1519.42578	-442.49011	-0.91799	1233.16382	-457.25616	-626.49432	1196.26184	-214.78169	16.46631	997.41064	-367.62073	-655.53125	1086.63330	9.40850	-102.41364	932.22681	-313.24979	-368.75687	923.20642	-224.90076	-276.12427	982.26416	-532.64917	-83.00261	485.98730	-339.43781	-417.83701	501.75906	-210.36600	-87.62904	100.10392	-562.42651	-431.93063	94.27013	-221.59641	
349	3.480	-196.43004	1571.66760	-166.26132							-426.08957	1538.88245	-146.25694	-99.74418	1515.64490	-383.28470	-484.19220	1426.47437	-260.69553	-264.30099	1300.49658	-262.46713	-345.60593	1519.89417	-436.00940	-2.92567	1233.86230	-455.87860	-628.86792	1195.56299	-208.20439	14.80814	999.02313	-364.30634	-658.24957	1085.21631	15.63155	-104.50701	933.18976	-309.03027	-370.07480	923.51880	-219.74048	-279.41833	983.44000	-527.79498	-86.14272	486.08701	-330.57364	-421.05750	501.12503	-207.93352	-87.38126	102.36876	-560.48175	-431.67194	94.40074	-221.31984	
350	3.490	-198.31213	1571.82935	-160.41962							-428.09470	1539.02783	-139.70378	-102.61288	1517.06482	-378.57788	-486.67474	1425.12854	-253.95172	-265.79599	1300.90234	-258.25635	-348.70313	1520.53149	-429.72339	-6.81810	1234.47681	-451.89069	-631.10938	1195.60364	-201.84709	14.10534	1000.75836	-359.11084	-660.43542	1083.68884	22.08442	-106.63829	934.13495	-303.76913	-371.46191	923.63251	-214.15819	-282.28433	983.47113	-523.05640	-88.65792	486.93845	-320.94888	-424.02692	499.27539	-207.86882	-86.79496	104.36670	-558.94843	-431.12628	93.92149	-221.03796	
351	3.500	-200.00998	1572.21484	-154.89693							-429.09897	1539.03613	-133.59816	-104.77371	1517.95447	-374.68900	-486.96149	1424.69043	-247.62784	-267.24185	1301.82690	-252.68829	-351.49634	1520.73242	-423.55627	-10.19998	1235.41174	-448.01053	-632.81891	1194.90149	-194.83029	11.72231	1001.59320	-355.98166	-662.23053	1082.28723	27.44352	-108.75945	934.32501	-299.94266	-372.21701	924.35669	-207.38631	-285.05548	984.66638	-517.97949	-91.11364	487.87207	-312.69843	-427.14737	498.82993	-207.52657	-86.47823	107.34404	-557.49524	-430.87399	93.78970	-221.02097	
352	3.510	-201.86052	1572.33008	-148.08232							-430.92023	1538.62158	-127.09603	-107.42429	1518.92212	-370.69934	-489.27747	1424.14575	-241.64888	-267.24304	1302.21387	-247.27654	-354.24832	1521.04077	-417.85297	-13.31524	1235.78564	-443.90393	-634.61975	1195.62915	-188.52280	9.07006	1002.20111	-352.60605	-664.21875	1080.61792	32.72050	-110.14304	935.06848	-294.90686	-373.17355	924.53558	-202.03532	-288.03342	985.39728	-513.99030	-92.51246	489.83347	-305.79068	-430.05020	497.29462	-206.95815	-86.26008	110.29401	-555.24817	-430.25311	94.06200	-221.40689	
353	3.520	-203.73079	1572.59094	-144.28403							-432.56979	1538.82446	-121.11047	-109.03078	1519.66650	-366.20395	-489.91870	1423.98438	-235.14040	-268.56833	1301.83313	-243.60631	-356.85782	1521.88025	-412.23227	-15.33781	1237.10522	-440.73203	-635.59015	1195.39197	-183.10414	5.62617	1002.98529	-350.47577	-665.85657	1078.84070	38.45174	-111.67960	935.43451	-291.62915	-373.62259	924.74017	-196.53220	-291.27429	986.18781	-509.69690	-93.55191	492.05185	-298.97589	-433.02927	496.44965	-205.74771	-86.01441	112.97532	-553.55902	-429.87573	93.79272	-221.25142	
354	3.530	-205.37959	1573.18274	-139.13521							-434.19183	1538.24011	-115.41940	-112.01620	1519.57910	-362.59470	-491.75061	1423.62439	-229.24706	-269.01355	1302.93457	-238.51349	-359.79480	1522.53467	-406.79550	-17.36030	1237.19995	-438.20361	-636.94080	1195.24707	-177.13448	3.97974	1003.91034	-347.78003	-667.74707	1077.78748	42.66712	-113.38422	936.69690	-288.79752	-374.15622	924.75781	-190.72618	-293.77103	986.95197	-505.05469	-94.93680	493.70819	-293.30042	-436.22174	494.59406	-206.73302	-85.69859	115.95536	-550.75616	-429.52902	93.56615	-221.07845	
355	3.540	-207.32121	1573.07703	-133.70941							-435.40039	1537.83289	-110.00982	-114.30824	1520.63037	-358.04810	-491.73346	1422.75073	-222.86217	-269.56265	1302.76318	-232.21931	-362.09586	1522.46619	-400.94992	-20.93695	1238.64551	-435.34140	-638.28076	1194.60706	-170.84247	2.51182	1005.11578	-345.83276	-669.50916	1076.94104	48.27317	-114.69694	937.30286	-285.13190	-374.28009	924.52509	-186.40170	-296.95724	987.47247	-501.21524	-95.30880	495.37628	-289.16339	-438.84561	494.02719	-205.28374	-85.81171	119.43633	-548.23267	-429.02600	93.12226	-220.53905	
356	3.550	-208.34741	1573.29041	-128.00104							-436.94611	1537.86951	-104.27895	-116.47784	1520.92188	-354.24533	-493.87308	1423.06799	-217.47668	-270.66049	1302.37695	-227.75421	-364.08090	1523.00867	-394.84485	-23.40539	1239.54700	-431.61105	-639.55261	1194.29492	-164.67105	-1.79550	1004.18811	-344.72095	-670.96625	1074.13501	53.55217	-116.22190	937.44928	-282.50043	-374.34219	924.52850	-180.77863	-300.02301	988.09943	-497.85141	-95.87932	495.88394	-284.83810	-441.58228	493.79025	-204.58051	-85.76785	121.98846	-545.72650	-428.62659	93.19339	-220.11124	
357	3.560	-209.67932	1573.03003	-123.18262							-437.79025	1537.07178	-98.32204	-118.08218	1521.72937	-350.35007	-493.90570	1421.83386	-210.42641	-271.27774	1302.91028	-222.63260	-366.32559	1523.59534	-389.52817	-25.06443	1240.27673	-429.87964	-640.51819	1193.81213	-159.07257	-1.38554	1006.25934	-340.73529	-672.14948	1072.14050	58.29488	-117.34261	938.10388	-281.19525	-374.89627	924.04352	-178.09328	-303.05978	989.08282	-493.53171	-96.51942	496.87933	-281.56604	-443.68933	494.61948	-202.22417	-85.68969	124.74078	-543.49133	-427.78159	93.24020	-220.15857	
358	3.570	-210.97466	1573.41162	-117.50388							-439.17145	1537.12634	-93.72267	-119.46645	1522.26123	-345.54718	-494.83859	1421.62061	-204.73477	-272.66983	1302.26978	-218.83371	-368.15253	1523.65491	-383.70419	-28.33203	1241.03833	-426.35324	-641.51672	1193.22791	-154.11511	-4.16390	1006.62189	-337.62366	-673.79773	1070.47681	62.14728	-119.05585	938.39398	-278.28967	-375.07294	924.57147	-171.10419	-305.91467	989.92822	-489.85941	-95.61691	497.89694	-277.05295	-446.16333	494.48978	-200.54619	-85.50825	127.46187	-540.58179	-427.40286	93.13278	-219.98029	
359	3.580	-211.59123	1572.56348	-113.69553							-439.83060	1536.70215	-88.02031	-121.75418	1522.42383	-342.16815	-497.12521	1422.12354	-200.21562	-273.42517	1302.06030	-215.13023	-370.10818	1523.77686	-378.38672	-29.08917	1241.84167	-424.61920	-643.08917	1193.18127	-150.41908	-5.29828	1007.66003	-335.26941	-675.61554	1069.50000	65.75573	-119.97621	938.38983	-277.66379	-375.00073	923.65680	-167.35583	-309.71222	990.60107	-486.11630	-93.95162	500.06241	-272.19708	-447.58524	495.42746	-198.43878	-86.16844	130.50272	-538.15186	-427.05499	93.29761	-220.13264	
360	3.590	-212.72633	1572.45068	-107.39340							-441.18649	1536.14453	-82.71597	-123.32322	1522.26062	-337.27008	-495.94049	1420.46704	-193.82498	-274.19638	1301.73914	-210.59360	-372.01611	1524.71631	-373.51318	-31.18817	1242.84277	-421.98856	-644.27197	1192.52881	-144.54318	-8.62337	1008.17712	-333.37512	-677.36334	1066.79968	69.18198	-121.36388	937.99713	-276.30573	-375.06406	923.32782	-163.15320	-311.99866	991.21552	-482.53708	-91.37732	501.31268	-267.70639	-448.42065	495.59253	-194.09477	-86.75516	133.09349	-536.71643	-426.68066	92.91715	-219.80356	
361	3.600	-213.83226	1572.43896	-103.22065							-441.73798	1535.65967	-77.47664	-124.38412	1522.25452	-332.95044	-498.15390	1420.70923	-188.73854	-275.06613	1302.13037	-207.45750	-373.50980	1524.52808	-368.25946	-32.58922	1243.18127	-419.31903	-645.29718	1191.51794	-139.43237	-9.02653	1009.14771	-330.96964	-678.72748	1064.77625	73.60572	-122.44412	937.91412	-275.09793	-374.83682	922.50562	-159.77104	-315.03918	992.07892	-479.03989	-89.34323	502.47696	-262.86435	-448.22763	495.79645	-192.30992	-87.95339	136.74405	-532.97253	-426.55847	92.92629	-219.39351	
362	3.610	-214.11807	1571.81714	-98.59583							-441.98712	1535.61670	-72.42553	-126.57643	1523.02563	-329.65399	-498.73096	1420.08813	-183.08238	-276.29385	1302.03882	-204.11182	-375.31763	1525.48145	-363.89380	-34.44838	1243.80615	-416.27118	-646.49817	1190.92737	-135.22592	-10.56802	1010.22058	-328.56998	-679.64661	1062.85815	77.53656	-123.60176	937.86639	-273.97849	-374.86777	922.63434	-155.85895	-317.71790	993.29102	-475.43961	-86.06870	502.98669	-258.84631	-447.98196	495.51834	-189.59648	-88.41933	138.53049	-530.69977	-426.55527	92.97183	-219.36821	
363	3.620	-214.82764	1571.52454	-94.37453							-443.06171	1534.98340	-67.41749	-127.64854	1523.50598	-325.59900	-498.50116	1419.29871	-177.95479	-276.53113	1301.68237	-199.18919	-376.85730	1525.53821	-358.69766	-35.91074	1244.08374	-414.04800	-647.62885	1190.12402	-131.28806	-12.31006	1009.38721	-326.26437	-681.15527	1062.01538	80.68038	-124.41325	937.72461	-271.87939	-375.33163	922.21246	-152.03987	-320.33569	994.69415	-472.15213	-83.43047	504.24994	-254.73804	-446.51199	495.82724	-187.52391	-90.34596	140.23103	-528.05927	-426.53107	93.03707	-219.27817	
364	3.630	-214.99702	1570.66260	-89.56579							-443.19611	1534.82312	-62.58327	-128.81079	1523.69641	-322.78720	-499.91110	1419.92224	-173.71501	-277.64325	1301.33521	-197.15839	-378.37381	1526.05530	-354.14508	-37.14792	1245.55835	-412.15955	-648.23950	1189.53027	-127.17605	-13.11974	1010.91925	-324.27783	-681.53143	1058.48047	84.29039	-125.90744	938.86694	-270.67801	-375.26923	922.07660	-148.81966	-321.46231	995.19159	-468.33762	-79.22786	505.78577	-251.11214	-445.09689	495.73492	-185.47530	-91.85143	141.68452	-524.66699	-426.61188	92.99314	-218.89586	
365	3.640	-215.63693	1570.52881	-85.17522							-443.27548	1534.35901	-57.87123	-130.11313	1524.27686	-318.98959	-500.70425	1419.15552	-169.07646	-278.19025	1301.80811	-192.48918	-379.60492	1526.82983	-349.83646	-38.19464	1245.59497	-408.20758	-649.33624	1189.19189	-124.39887	-13.98352	1011.52966	-321.92795	-682.48486	1057.52100	87.67467	-126.34364	939.24652	-268.77820	-374.74292	922.18042	-144.95110	-323.75055	996.50482	-464.96201	-76.41405	507.03503	-248.19057	-443.36832	495.53442	-182.49892	-92.93906	142.84250	-520.75006	-426.21210	93.07194	-218.17140	
